<?xml version="1.0" standalone="no"?>
<svg viewBox="0 0 200 200" xmlns="http://www.w3.org/2000/svg">
  <path fill="#009846" d="M36.6,-58C43.1,-59.7,40.9,-41,48.4,-27.9C56,-14.9,73.3,-7.4,68.4,-2.8C63.5,1.8,36.3,3.5,29.3,17.6C22.3,31.6,35.5,57.9,34,59.2C32.4,60.5,16.2,36.7,4.6,28.8C-7.1,20.9,-14.1,28.7,-16.2,27.8C-18.3,26.8,-15.4,17,-21.8,10.9C-28.2,4.8,-43.9,2.4,-43,0.5C-42.1,-1.4,-24.7,-2.8,-21.5,-14.6C-18.4,-26.3,-29.6,-48.5,-28.4,-49.8C-27.2,-51,-13.6,-31.4,0.7,-32.7C15.1,-34,30.2,-56.2,36.6,-58Z" transform="translate(100 100)" />
</svg>
