<?xml version="1.0" standalone="no"?>
<svg viewBox="0 0 200 200" xmlns="http://www.w3.org/2000/svg">
  <path fill="#009846" d="M16.3,-25.3C30.5,-20.1,57.9,-34.6,69.7,-33.7C81.6,-32.8,78,-16.4,67.8,-5.9C57.6,4.6,40.8,9.2,36.5,23.2C32.1,37.2,40.3,60.5,36.3,65.1C32.3,69.6,16.1,55.3,4.6,47.4C-7,39.5,-14,37.9,-26,38C-38.1,38.2,-55.1,39.9,-60.2,33.9C-65.2,27.8,-58.1,13.9,-50.6,4.3C-43.2,-5.3,-35.3,-10.5,-32.4,-20.4C-29.6,-30.3,-31.9,-44.8,-27.4,-55.6C-22.8,-66.4,-11.4,-73.5,-5.2,-64.6C1.1,-55.6,2.1,-30.6,16.3,-25.3Z" transform="translate(100 100)" />
</svg>
